<svg xmlns="http://www.w3.org/2000/svg" viewBox="0 0 64 64" fill="none" stroke-linecap="round" stroke-linejoin="round">
  <!-- Broom handle -->
  <line x1="18" y1="10" x2="38" y2="42" stroke="#8B7355" stroke-width="3"/>
  <!-- Broom bristles -->
  <path d="M30 36 L44 50 Q38 54 32 52 L26 46 Z" fill="#D4A853" stroke="#B8922E" stroke-width="1.5"/>
  <path d="M28 38 L38 52 Q34 56 28 54 L22 48 Z" fill="#E0B960" stroke="#B8922E" stroke-width="1.5"/>
  <path d="M26 40 L32 54 Q28 58 22 56 L18 50 Z" fill="#D4A853" stroke="#B8922E" stroke-width="1.5"/>
  <!-- Sparkle 1 -->
  <path d="M50 12 L52 16 L56 18 L52 20 L50 24 L48 20 L44 18 L48 16 Z" fill="#FFD700" stroke="#DAA520" stroke-width="0.8"/>
  <!-- Sparkle 2 -->
  <path d="M12 28 L13.5 31 L16.5 32.5 L13.5 34 L12 37 L10.5 34 L7.5 32.5 L10.5 31 Z" fill="#FFD700" stroke="#DAA520" stroke-width="0.8"/>
  <!-- Sparkle 3 -->
  <path d="M46 34 L47 36.5 L49.5 37.5 L47 38.5 L46 41 L45 38.5 L42.5 37.5 L45 36.5 Z" fill="#FFD700" stroke="#DAA520" stroke-width="0.8"/>
</svg>
